<?xml version="1.0" standalone="no"?>
<!DOCTYPE svg PUBLIC "-//W3C//DTD SVG 20010904//EN"
 "http://www.w3.org/TR/2001/REC-SVG-20010904/DTD/svg10.dtd">
<svg version="1.0" xmlns="http://www.w3.org/2000/svg"
 width="260.000000pt" height="260.000000pt" viewBox="0 0 260.000000 260.000000"
 preserveAspectRatio="xMidYMid meet">
<metadata>
Created by potrace 1.11, written by Peter Selinger 2001-2013
</metadata>
<g transform="translate(0.000000,260.000000) scale(0.100000,-0.100000)"
fill="#000000" stroke="none">
<path d="M1169 2596 c-2 -2 -24 -6 -49 -10 -102 -14 -128 -19 -214 -48 -472
-155 -801 -533 -886 -1018 -14 -79 -17 -141 -15 -250 2 -80 6 -156 9 -170 4
-14 9 -38 12 -55 12 -68 38 -154 69 -233 161 -399 508 -690 935 -783 150 -33
390 -33 540 0 248 54 462 169 640 344 83 82 101 103 168 201 152 224 223 469
217 751 -4 156 -5 168 -34 287 -88 371 -360 704 -705 864 -119 54 -215 84
-361 110 -34 7 -321 15 -326 10z m83 -446 c38 -11 123 -69 146 -102 17 -23 27
-23 61 1 41 29 144 61 208 64 213 11 404 -138 447 -347 14 -63 14 -145 2 -183
-6 -19 -2 -25 26 -36 47 -20 97 -72 120 -123 49 -112 4 -240 -105 -300 l-52
-28 -325 -2 c-388 -3 -357 -1 -357 -16 -1 -19 -13 -91 -19 -109 -4 -15 7 -16
101 -14 95 2 105 1 100 -14 -17 -55 -298 -698 -310 -710 -12 -12 -13 -3 -10
66 2 44 6 93 9 109 3 16 8 53 11 83 4 30 9 63 11 75 2 12 7 52 11 89 l6 68
-29 -5 c-16 -3 -64 -8 -107 -12 l-79 -6 6 46 c3 25 9 67 12 93 3 27 7 55 9 63
3 8 7 38 10 65 4 28 10 67 15 88 5 26 4 37 -4 38 -6 0 -157 2 -336 3 -315 2
-326 3 -368 24 -58 31 -116 89 -136 137 -20 47 -26 125 -14 180 10 48 68 130
107 153 23 13 29 26 38 78 14 79 45 142 96 194 71 71 191 114 279 100 35 -6
37 -5 54 32 36 80 123 147 219 168 35 8 95 4 147 -10z"/>
</g>
</svg>
